<mxfile host="65bd71144e">
    <diagram id="7bnZLNWAl8riidvRk2yh" name="Page-1">
        <mxGraphModel dx="2018" dy="921" grid="1" gridSize="10" guides="1" tooltips="1" connect="1" arrows="1" fold="1" page="1" pageScale="1" pageWidth="1169" pageHeight="827" math="0" shadow="0">
            <root>
                <mxCell id="0"/>
                <mxCell id="1" parent="0"/>
                <mxCell id="2" value="" style="rounded=0;whiteSpace=wrap;html=1;shadow=0;labelBackgroundColor=none;strokeColor=#FFFFFF;strokeWidth=2;fillColor=none;fontSize=22;fontColor=#FFFFFF;align=center;" vertex="1" parent="1">
                    <mxGeometry x="720" y="70" width="200" height="510" as="geometry"/>
                </mxCell>
                <mxCell id="3" value="" style="strokeWidth=1;shadow=0;dashed=0;align=center;html=1;shape=mxgraph.mockup.containers.browserWindow;rSize=0;fillColor=#000000;strokeColor=#666666;mainText=,;recursiveResize=0;rounded=0;labelBackgroundColor=none;fontSize=22;fontColor=#050505;" vertex="1" parent="1">
                    <mxGeometry x="100" y="80" width="330" height="480" as="geometry"/>
                </mxCell>
                <mxCell id="4" value="Page 1" style="strokeWidth=1;shadow=0;dashed=0;align=center;html=1;shape=mxgraph.mockup.containers.anchor;fontSize=17;fontColor=#666666;align=left;" vertex="1" parent="3">
                    <mxGeometry x="60" y="12" width="110" height="26" as="geometry"/>
                </mxCell>
                <mxCell id="5" value="https://www.draw.io" style="strokeWidth=1;shadow=0;dashed=0;align=center;html=1;shape=mxgraph.mockup.containers.anchor;rSize=0;fontSize=17;fontColor=#666666;align=left;" vertex="1" parent="3">
                    <mxGeometry x="130" y="60" width="250" height="26" as="geometry"/>
                </mxCell>
                <mxCell id="6" value="We Using Cookies" style="text;html=1;strokeColor=none;fillColor=none;align=center;verticalAlign=middle;whiteSpace=wrap;rounded=0;shadow=0;labelBackgroundColor=none;fontSize=22;fontColor=#FFFFFF;" vertex="1" parent="1">
                    <mxGeometry x="455" y="30" width="230" height="20" as="geometry"/>
                </mxCell>
                <mxCell id="7" style="edgeStyle=orthogonalEdgeStyle;rounded=0;html=1;exitX=0;exitY=0.25;startArrow=classic;startFill=1;endArrow=none;endFill=0;jettySize=auto;orthogonalLoop=1;strokeColor=#FFFFFF;strokeWidth=3;fontSize=22;fontColor=#FFFFFF;" edge="1" parent="1" source="9">
                    <mxGeometry relative="1" as="geometry">
                        <mxPoint x="433" y="182" as="targetPoint"/>
                        <Array as="points">
                            <mxPoint x="433" y="182"/>
                        </Array>
                    </mxGeometry>
                </mxCell>
                <mxCell id="8" style="edgeStyle=orthogonalEdgeStyle;rounded=0;html=1;exitX=0;exitY=0.75;entryX=1;entryY=0.5;startArrow=none;startFill=0;endArrow=classic;endFill=1;jettySize=auto;orthogonalLoop=1;strokeColor=#FFFFFF;strokeWidth=3;fontSize=16;fontColor=#FFFFFF;" edge="1" parent="1" source="9" target="17">
                    <mxGeometry relative="1" as="geometry"/>
                </mxCell>
                <mxCell id="9" value="Ok, you're logged in, Here's a piece of info, include it with requests" style="rounded=0;whiteSpace=wrap;html=1;shadow=0;labelBackgroundColor=none;strokeColor=#FFFFFF;strokeWidth=2;fillColor=none;fontSize=16;fontColor=#FFFFFF;align=center;" vertex="1" parent="1">
                    <mxGeometry x="760" y="153" width="120" height="117" as="geometry"/>
                </mxCell>
                <mxCell id="10" value="Server" style="text;html=1;strokeColor=none;fillColor=none;align=center;verticalAlign=middle;whiteSpace=wrap;rounded=0;shadow=0;labelBackgroundColor=none;fontSize=22;fontColor=#FFFFFF;" vertex="1" parent="1">
                    <mxGeometry x="800" y="80" width="40" height="20" as="geometry"/>
                </mxCell>
                <mxCell id="11" style="edgeStyle=orthogonalEdgeStyle;rounded=0;html=1;exitX=0;exitY=0.75;entryX=1;entryY=0.5;startArrow=none;startFill=0;endArrow=classic;endFill=1;jettySize=auto;orthogonalLoop=1;strokeColor=#FFFFFF;strokeWidth=3;fontSize=16;fontColor=#FFFFFF;" edge="1" parent="1" source="12" target="21">
                    <mxGeometry relative="1" as="geometry"/>
                </mxCell>
                <mxCell id="12" value="Ah, user 123, sure, here are your posts" style="rounded=0;whiteSpace=wrap;html=1;shadow=0;labelBackgroundColor=none;strokeColor=#FFFFFF;strokeWidth=2;fillColor=none;fontSize=16;fontColor=#FFFFFF;align=center;" vertex="1" parent="1">
                    <mxGeometry x="760" y="427" width="120" height="130" as="geometry"/>
                </mxCell>
                <mxCell id="13" value="Log me in please" style="text;html=1;strokeColor=none;fillColor=none;align=center;verticalAlign=middle;whiteSpace=wrap;rounded=0;shadow=0;labelBackgroundColor=none;fontSize=22;fontColor=#FFFFFF;" vertex="1" parent="1">
                    <mxGeometry x="550" y="146" width="110" height="20" as="geometry"/>
                </mxCell>
                <mxCell id="14" value="Can I have a list of my posts?" style="text;html=1;strokeColor=none;fillColor=none;align=center;verticalAlign=middle;whiteSpace=wrap;rounded=0;shadow=0;labelBackgroundColor=none;fontSize=22;fontColor=#FFFFFF;" vertex="1" parent="1">
                    <mxGeometry x="515" y="395" width="170" height="20" as="geometry"/>
                </mxCell>
                <mxCell id="15" style="edgeStyle=orthogonalEdgeStyle;rounded=0;html=1;exitX=0;exitY=0.5;entryX=1.006;entryY=0.264;entryPerimeter=0;startArrow=classic;startFill=1;endArrow=none;endFill=0;jettySize=auto;orthogonalLoop=1;strokeColor=#FFFFFF;strokeWidth=3;fontSize=22;fontColor=#FFFFFF;" edge="1" parent="1" source="19">
                    <mxGeometry relative="1" as="geometry">
                        <mxPoint x="758" y="460" as="sourcePoint"/>
                        <mxPoint x="430" y="460" as="targetPoint"/>
                    </mxGeometry>
                </mxCell>
                <mxCell id="16" style="edgeStyle=orthogonalEdgeStyle;rounded=0;html=1;exitX=0;exitY=0.25;entryX=1.009;entryY=0.3;entryPerimeter=0;startArrow=none;startFill=0;endArrow=classic;endFill=1;jettySize=auto;orthogonalLoop=1;strokeColor=#FFFFFF;strokeWidth=3;fontSize=22;fontColor=#FFFFFF;" edge="1" parent="1" source="17">
                    <mxGeometry relative="1" as="geometry">
                        <mxPoint x="760" y="240" as="sourcePoint"/>
                        <mxPoint x="433" y="240" as="targetPoint"/>
                        <Array as="points">
                            <mxPoint x="550" y="240"/>
                        </Array>
                    </mxGeometry>
                </mxCell>
                <mxCell id="17" value="Set-Cookie: 'aslkdflkasdf'" style="rounded=0;whiteSpace=wrap;html=1;shadow=0;labelBackgroundColor=none;strokeColor=#FFFFFF;strokeWidth=2;fillColor=none;fontSize=16;fontColor=#FFFFFF;align=center;" vertex="1" parent="1">
                    <mxGeometry x="550" y="221" width="120" height="40" as="geometry"/>
                </mxCell>
                <mxCell id="18" style="edgeStyle=orthogonalEdgeStyle;rounded=0;html=1;exitX=1;exitY=0.5;entryX=0;entryY=0.25;startArrow=none;startFill=0;endArrow=none;endFill=0;jettySize=auto;orthogonalLoop=1;strokeColor=#FFFFFF;strokeWidth=3;fontSize=16;fontColor=#FFFFFF;" edge="1" parent="1" source="19" target="12">
                    <mxGeometry relative="1" as="geometry"/>
                </mxCell>
                <mxCell id="19" value="Cookie: 'aslkdflkasdf'" style="rounded=0;whiteSpace=wrap;html=1;shadow=0;labelBackgroundColor=none;strokeColor=#FFFFFF;strokeWidth=2;fillColor=none;fontSize=16;fontColor=#FFFFFF;align=center;" vertex="1" parent="1">
                    <mxGeometry x="540" y="440" width="120" height="40" as="geometry"/>
                </mxCell>
                <mxCell id="20" style="edgeStyle=orthogonalEdgeStyle;rounded=0;html=1;exitX=0;exitY=0.5;entryX=1.009;entryY=0.927;entryPerimeter=0;startArrow=none;startFill=0;endArrow=classic;endFill=1;jettySize=auto;orthogonalLoop=1;strokeColor=#FFFFFF;strokeWidth=3;fontSize=16;fontColor=#FFFFFF;" edge="1" parent="1" source="21" target="3">
                    <mxGeometry relative="1" as="geometry"/>
                </mxCell>
                <mxCell id="21" value="Posts" style="rounded=0;whiteSpace=wrap;html=1;shadow=0;labelBackgroundColor=none;strokeColor=#FFFFFF;strokeWidth=2;fillColor=none;fontSize=16;fontColor=#FFFFFF;align=center;" vertex="1" parent="1">
                    <mxGeometry x="540" y="505" width="120" height="40" as="geometry"/>
                </mxCell>
            </root>
        </mxGraphModel>
    </diagram>
</mxfile>